# xmcd
#
# Track frame offsets: 
#        150
#        15480
#        31013
#        42686
#        55388
#        72170
#        90078
#
# Disc length: 1457 seconds
#
# Revision: 0
# Processed by: cddbd v1.5.2PL0 Copyright (c) Steve Scherf et al.
# Submitted via: ExactAudioCopy v1.3
#
DISCID=4d05af07
DTITLE=Julie Roberts - Who Needs Mistletoe
DYEAR=2011
DGENRE=Jazz
TTITLE0=Blue Christmas
TTITLE1=Who Needs Mistletoe
TTITLE2=Pretty Paper
TTITLE3=I'll Be Home For Christmas
TTITLE4=O Holy Night
TTITLE5=Away In A Manger
TTITLE6=Merry Little Christmas
EXTD=
EXTT0=
EXTT1=
EXTT2=
EXTT3=
EXTT4=
EXTT5=
EXTT6=
PLAYORDER=
